{"extensionsUsed" : ["KHR_materials_unlit", "KHR_texture_transform", "VRM"], "accessors" : [{"bufferView" : 0, "byteOffset" : 0, "componentType" : 5123, "count" : 972, "type" : "SCALAR", "max" : [891], "min" : [0]}, {"bufferView" : 1, "byteOffset" : 0, "componentType" : 5126, "count" : 892, "type" : "VEC3", "max" : [0.6499999761581421, 0.4899999797344208, 1.25], "min" : [-0.6499999761581421, 0, -1.2000000476837158], "name" : "POSITION"}, {"bufferView" : 1, "byteOffset" : 12, "componentType" : 5126, "count" : 892, "type" : "VEC3", "max" : [1.0000044107437134, 1.0000044107437134, 1.0000044107437134], "min" : [-1.0000044107437134, -1.0000044107437134, -1.0000044107437134], "name" : "NORMAL"}, {"bufferView" : 1, "byteOffset" : 24, "componentType" : 5126, "count" : 892, "type" : "VEC2", "max" : [49.21259689331055, 50.21259689331055], "min" : [-49.21259689331055, -46.24409484863281], "name" : "TEXCOORD_0"}, {"bufferView" : 0, "byteOffset" : 1944, "componentType" : 5123, "count" : 492, "type" : "SCALAR", "max" : [471], "min" : [0]}, {"bufferView" : 2, "byteOffset" : 0, "componentType" : 5126, "count" : 472, "type" : "VEC3", "max" : [0.6499999761581421, 0.4000000059604645, 0.9600000381469727], "min" : [-0.6499999761581421, 0, -0.9600000381469727], "name" : "POSITION"}, {"bufferView" : 2, "byteOffset" : 12, "componentType" : 5126, "count" : 472, "type" : "VEC3", "max" : [1.0000044107437134, 0, 1.0000044107437134], "min" : [-1.0000044107437134, -1.0000044107437134, -1.0000044107437134], "name" : "NORMAL"}, {"bufferView" : 2, "byteOffset" : 24, "componentType" : 5126, "count" : 472, "type" : "VEC2", "max" : [37.7952766418457, 27.789718627929688], "min" : [-37.7952766418457, -26.81748390197754], "name" : "TEXCOORD_0"}, {"bufferView" : 0, "byteOffset" : 2928, "componentType" : 5123, "count" : 402, "type" : "SCALAR", "max" : [365], "min" : [0]}, {"bufferView" : 3, "byteOffset" : 0, "componentType" : 5126, "count" : 366, "type" : "VEC3", "max" : [0.6499999761581421, 0.8999999761581421, 1.25], "min" : [-0.6499999761581421, 0.30000001192092896, -1.149999976158142], "name" : "POSITION"}, {"bufferView" : 3, "byteOffset" : 12, "componentType" : 5126, "count" : 366, "type" : "VEC3", "max" : [1.0000044107437134, 1.0000044107437134, 1.0000044107437134], "min" : [-1.0000044107437134, -1.0000044107437134, -1.0000044107437134], "name" : "NORMAL"}, {"bufferView" : 3, "byteOffset" : 24, "componentType" : 5126, "count" : 366, "type" : "VEC2", "max" : [49.21259689331055, 37.9743537902832], "min" : [-49.21259689331055, -27.01230239868164], "name" : "TEXCOORD_0"}, {"bufferView" : 0, "byteOffset" : 3732, "componentType" : 5123, "count" : 48, "type" : "SCALAR", "max" : [44], "min" : [0]}, {"bufferView" : 4, "byteOffset" : 0, "componentType" : 5126, "count" : 45, "type" : "VEC3", "max" : [0.6499999761581421, 0.6000000238418579, 0.8499999642372131], "min" : [-0.6499999761581421, 0.5, -0.550000011920929], "name" : "POSITION"}, {"bufferView" : 4, "byteOffset" : 12, "componentType" : 5126, "count" : 45, "type" : "VEC3", "max" : [0, 1.0000044107437134, 1.0000044107437134], "min" : [0, 0, -0], "name" : "NORMAL"}, {"bufferView" : 4, "byteOffset" : 24, "componentType" : 5126, "count" : 45, "type" : "VEC2", "max" : [25.590551376342773, 27.789718627929688], "min" : [-21.65354347229004, -15.535432815551758], "name" : "TEXCOORD_0"}, {"bufferView" : 0, "byteOffset" : 3828, "componentType" : 5123, "count" : 30, "type" : "SCALAR", "max" : [29], "min" : [0]}, {"bufferView" : 5, "byteOffset" : 0, "componentType" : 5126, "count" : 30, "type" : "VEC3", "max" : [0.550000011920929, 0.8399999737739563, 0.7792893052101135], "min" : [-0.550000011920929, 0.6000000238418579, -0.550000011920929], "name" : "POSITION"}, {"bufferView" : 5, "byteOffset" : 12, "componentType" : 5126, "count" : 30, "type" : "VEC3", "max" : [0.9486874938011169, 0.8000035285949707, 0.7071098685264587], "min" : [-0.9486874938011169, 0.3162291646003723, -0.600002646446228], "name" : "NORMAL"}, {"bufferView" : 5, "byteOffset" : 24, "componentType" : 5126, "count" : 30, "type" : "VEC2", "max" : [17.638566970825195, 4.149606227874756], "min" : [-17.638566970825195, -23.075294494628906], "name" : "TEXCOORD_0"}, {"bufferView" : 0, "byteOffset" : 3888, "componentType" : 5123, "count" : 12, "type" : "SCALAR", "max" : [11], "min" : [0]}, {"bufferView" : 6, "byteOffset" : 0, "componentType" : 5126, "count" : 12, "type" : "VEC3", "max" : [0.550000011920929, 0.5, 1.25], "min" : [-0.550000011920929, 0.4000000059604645, 1.0499999523162842], "name" : "POSITION"}, {"bufferView" : 6, "byteOffset" : 12, "componentType" : 5126, "count" : 12, "type" : "VEC3", "max" : [0, 0.8944311141967773, 0.44721555709838867], "min" : [0, 0.8944311141967773, 0.44721555709838867], "name" : "NORMAL"}, {"bufferView" : 6, "byteOffset" : 24, "componentType" : 5126, "count" : 12, "type" : "VEC2", "max" : [21.65354347229004, 37.9743537902832], "min" : [-21.65354347229004, 29.170934677124023], "name" : "TEXCOORD_0"}, {"bufferView" : 0, "byteOffset" : 3912, "componentType" : 5123, "count" : 12, "type" : "SCALAR", "max" : [11], "min" : [0]}, {"bufferView" : 7, "byteOffset" : 0, "componentType" : 5126, "count" : 12, "type" : "VEC3", "max" : [0.550000011920929, 0.47499996423721313, -1.024999976158142], "min" : [-0.550000011920929, 0.4000000059604645, -1.149999976158142], "name" : "POSITION"}, {"bufferView" : 7, "byteOffset" : 12, "componentType" : 5126, "count" : 12, "type" : "VEC3", "max" : [0, 0.8574966788291931, -0.5144979953765869], "min" : [0, 0.8574966788291931, -0.5144979953765869], "name" : "NORMAL"}, {"bufferView" : 7, "byteOffset" : 24, "componentType" : 5126, "count" : 12, "type" : "VEC2", "max" : [21.65354347229004, 31.721202850341797], "min" : [-21.65354347229004, 25.98207664489746], "name" : "TEXCOORD_0"}, {"bufferView" : 0, "byteOffset" : 3936, "componentType" : 5123, "count" : 60, "type" : "SCALAR", "max" : [59], "min" : [0]}, {"bufferView" : 8, "byteOffset" : 0, "componentType" : 5126, "count" : 60, "type" : "VEC3", "max" : [0.3126276135444641, 0.20000000298023224, 0.05934309586882591], "min" : [-0.3126276135444641, 0, -0.05934309586882591], "name" : "POSITION"}, {"bufferView" : 8, "byteOffset" : 12, "componentType" : 5126, "count" : 60, "type" : "VEC3", "max" : [1.0000044107437134, 0, 1.0000044107437134], "min" : [-1.0000044107437134, -1.0000044107437134, -1.0000044107437134], "name" : "NORMAL"}, {"bufferView" : 8, "byteOffset" : 24, "componentType" : 5126, "count" : 60, "type" : "VEC2", "max" : [12.308174133300781, 6.874015808105469], "min" : [-12.308174133300781, -3.3363423347473145], "name" : "TEXCOORD_0"}, {"bufferView" : 0, "byteOffset" : 4056, "componentType" : 5123, "count" : 84, "type" : "SCALAR", "max" : [78], "min" : [0]}, {"bufferView" : 9, "byteOffset" : 0, "componentType" : 5126, "count" : 79, "type" : "VEC3", "max" : [0.550000011920929, 0.30000001192092896, 0.11868619173765182], "min" : [-0.550000011920929, 0.20000000298023224, -0.11868619173765182], "name" : "POSITION"}, {"bufferView" : 9, "byteOffset" : 12, "componentType" : 5126, "count" : 79, "type" : "VEC3", "max" : [1.0000044107437134, 1.0000044107437134, 1.0000044107437134], "min" : [-1.0000044107437134, -1.0000044107437134, -1.0000044107437134], "name" : "NORMAL"}, {"bufferView" : 9, "byteOffset" : 24, "componentType" : 5126, "count" : 79, "type" : "VEC2", "max" : [21.65354347229004, 10.811023712158203], "min" : [-21.65354347229004, -5.672684669494629], "name" : "TEXCOORD_0"}, {"bufferView" : 0, "byteOffset" : 4224, "componentType" : 5123, "count" : 498, "type" : "SCALAR", "max" : [464], "min" : [0]}, {"bufferView" : 10, "byteOffset" : 0, "componentType" : 5126, "count" : 465, "type" : "VEC3", "max" : [0.30000001192092896, 0.30000001192092896, 0.30000001192092896], "min" : [0.10000000149011612, -0.30000001192092896, -0.30000001192092896], "name" : "POSITION"}, {"bufferView" : 10, "byteOffset" : 12, "componentType" : 5126, "count" : 465, "type" : "VEC3", "max" : [1.0000044107437134, 1.0000044107437134, 1.0000044107437134], "min" : [-1.0000044107437134, -1.0000044107437134, -1.0000044107437134], "name" : "NORMAL"}, {"bufferView" : 10, "byteOffset" : 24, "componentType" : 5126, "count" : 465, "type" : "VEC2", "max" : [11.811023712158203, 12.811023712158203], "min" : [-11.811023712158203, -10.811023712158203], "name" : "TEXCOORD_0"}, {"bufferView" : 0, "byteOffset" : 5220, "componentType" : 5123, "count" : 210, "type" : "SCALAR", "max" : [199], "min" : [0]}, {"bufferView" : 11, "byteOffset" : 0, "componentType" : 5126, "count" : 200, "type" : "VEC3", "max" : [0.30000001192092896, 0.12047797441482544, 0.12047797441482544], "min" : [0.25, -0.12047797441482544, -0.12047797441482544], "name" : "POSITION"}, {"bufferView" : 11, "byteOffset" : 12, "componentType" : 5126, "count" : 200, "type" : "VEC3", "max" : [1.0000044107437134, 0.8565922379493713, 0.8565922379493713], "min" : [0.5160024762153625, -0.8565922379493713, -0.8565922379493713], "name" : "NORMAL"}, {"bufferView" : 11, "byteOffset" : 24, "componentType" : 5126, "count" : 200, "type" : "VEC2", "max" : [12.564692497253418, 13.311131477355957], "min" : [-12.564692497253418, -11.311131477355957], "name" : "TEXCOORD_0"}, {"bufferView" : 0, "byteOffset" : 5640, "componentType" : 5123, "count" : 144, "type" : "SCALAR", "max" : [142], "min" : [0]}, {"bufferView" : 12, "byteOffset" : 0, "componentType" : 5126, "count" : 143, "type" : "VEC3", "max" : [0.30000001192092896, 0.18136820197105408, 0.18136820197105408], "min" : [0.30000001192092896, -0.18136820197105408, -0.18136820197105408], "name" : "POSITION"}, {"bufferView" : 12, "byteOffset" : 12, "componentType" : 5126, "count" : 143, "type" : "VEC3", "max" : [1.0000044107437134, 0, -0], "min" : [1.0000044107437134, 0, -0], "name" : "NORMAL"}, {"bufferView" : 12, "byteOffset" : 24, "componentType" : 5126, "count" : 143, "type" : "VEC2", "max" : [10.0393705368042, 3.5983800888061523], "min" : [9.697286605834961, -1.5983800888061523], "name" : "TEXCOORD_0"}], "asset" : {"generator" : "Aspose.3D 23.6.0", "version" : "2.0"}, "buffers" : [{"uri" : "data:application/octet-stream;base64,", "byteLength" : 100828}], "bufferViews" : [{"buffer" : 0, "byteOffset" : 0, "byteLength" : 5928, "target" : 34963}, {"buffer" : 0, "byteOffset" : 5932, "byteLength" : 31104, "byteStride" : 32, "target" : 34962}, {"buffer" : 0, "byteOffset" : 37040, "byteLength" : 15744, "byteStride" : 32, "target" : 34962}, {"buffer" : 0, "byteOffset" : 52788, "byteLength" : 12864, "byteStride" : 32, "target" : 34962}, {"buffer" : 0, "byteOffset" : 65656, "byteLength" : 1536, "byteStride" : 32, "target" : 34962}, {"buffer" : 0, "byteOffset" : 67196, "byteLength" : 960, "byteStride" : 32, "target" : 34962}, {"buffer" : 0, "byteOffset" : 68160, "byteLength" : 384, "byteStride" : 32, "target" : 34962}, {"buffer" : 0, "byteOffset" : 68548, "byteLength" : 384, "byteStride" : 32, "target" : 34962}, {"buffer" : 0, "byteOffset" : 68936, "byteLength" : 1920, "byteStride" : 32, "target" : 34962}, {"buffer" : 0, "byteOffset" : 70860, "byteLength" : 2688, "byteStride" : 32, "target" : 34962}, {"buffer" : 0, "byteOffset" : 73552, "byteLength" : 15936, "byteStride" : 32, "target" : 34962}, {"buffer" : 0, "byteOffset" : 89492, "byteLength" : 6720, "byteStride" : 32, "target" : 34962}, {"buffer" : 0, "byteOffset" : 96216, "byteLength" : 4608, "byteStride" : 32, "target" : 34962}], "materials" : [{"name" : "plastic", "pbrMetallicRoughness" : {"baseColorFactor" : [0.116970651, 0.116970651, 0.116970651, 1], "metallicFactor" : 1, "roughnessFactor" : 1}, "emissiveFactor" : [0, 0, 0], "alphaMode" : "OPAQUE", "doubleSided" : false}, {"name" : "carTire", "pbrMetallicRoughness" : {"baseColorFactor" : [0.0466650724, 0.0466650724, 0.0466650724, 1], "metallicFactor" : 1, "roughnessFactor" : 1}, "emissiveFactor" : [0, 0, 0], "alphaMode" : "OPAQUE", "doubleSided" : false}, {"name" : "paintRed", "pbrMetallicRoughness" : {"baseColorFactor" : [1, 0.0423114, 0.106621861, 1], "metallicFactor" : 1, "roughnessFactor" : 1}, "emissiveFactor" : [0, 0, 0], "alphaMode" : "OPAQUE", "doubleSided" : false}, {"name" : "_defaultMat", "pbrMetallicRoughness" : {"baseColorFactor" : [1, 1, 1, 1], "metallicFactor" : 1, "roughnessFactor" : 1}, "emissiveFactor" : [0, 0, 0], "alphaMode" : "OPAQUE", "doubleSided" : false}, {"name" : "window", "pbrMetallicRoughness" : {"baseColorFactor" : [0.8631573, 0.8631573, 0.8631573, 1], "metallicFactor" : 1, "roughnessFactor" : 1}, "emissiveFactor" : [0, 0, 0], "alphaMode" : "OPAQUE", "doubleSided" : false}, {"name" : "lightBack", "pbrMetallicRoughness" : {"baseColorFactor" : [1, 0.0998987257, 0.0423114, 1], "metallicFactor" : 1, "roughnessFactor" : 1}, "emissiveFactor" : [0, 0, 0], "alphaMode" : "OPAQUE", "doubleSided" : false}, {"name" : "lightFront", "pbrMetallicRoughness" : {"baseColorFactor" : [0.9130987, 0.48514998, 0.05448027, 1], "metallicFactor" : 1, "roughnessFactor" : 1}, "emissiveFactor" : [0, 0, 0], "alphaMode" : "OPAQUE", "doubleSided" : false}, {"name" : "carTire", "pbrMetallicRoughness" : {"baseColorFactor" : [0.0466650724, 0.0466650724, 0.0466650724, 1], "metallicFactor" : 1, "roughnessFactor" : 1}, "emissiveFactor" : [0, 0, 0], "alphaMode" : "OPAQUE", "doubleSided" : false}, {"name" : "paintRed", "pbrMetallicRoughness" : {"baseColorFactor" : [1, 0.0423114, 0.106621861, 1], "metallicFactor" : 1, "roughnessFactor" : 1}, "emissiveFactor" : [0, 0, 0], "alphaMode" : "OPAQUE", "doubleSided" : false}, {"name" : "carTire", "pbrMetallicRoughness" : {"baseColorFactor" : [0.0466650724, 0.0466650724, 0.0466650724, 1], "metallicFactor" : 1, "roughnessFactor" : 1}, "emissiveFactor" : [0, 0, 0], "alphaMode" : "OPAQUE", "doubleSided" : false}, {"name" : "wheelInside", "pbrMetallicRoughness" : {"baseColorFactor" : [0.5971663, 0.611944556, 0.673177958, 1], "metallicFactor" : 1, "roughnessFactor" : 1}, "emissiveFactor" : [0, 0, 0], "alphaMode" : "OPAQUE", "doubleSided" : false}, {"name" : "_defaultMat", "pbrMetallicRoughness" : {"baseColorFactor" : [1, 1, 1, 1], "metallicFactor" : 1, "roughnessFactor" : 1}, "emissiveFactor" : [0, 0, 0], "alphaMode" : "OPAQUE", "doubleSided" : false}], "meshes" : [{"primitives" : [{"attributes" : {"POSITION" : 1, "NORMAL" : 2, "TEXCOORD_0" : 3}, "indices" : 0, "material" : 0, "mode" : 4}, {"attributes" : {"POSITION" : 5, "NORMAL" : 6, "TEXCOORD_0" : 7}, "indices" : 4, "material" : 1, "mode" : 4}, {"attributes" : {"POSITION" : 9, "NORMAL" : 10, "TEXCOORD_0" : 11}, "indices" : 8, "material" : 2, "mode" : 4}, {"attributes" : {"POSITION" : 13, "NORMAL" : 14, "TEXCOORD_0" : 15}, "indices" : 12, "material" : 3, "mode" : 4}, {"attributes" : {"POSITION" : 17, "NORMAL" : 18, "TEXCOORD_0" : 19}, "indices" : 16, "material" : 4, "mode" : 4}, {"attributes" : {"POSITION" : 21, "NORMAL" : 22, "TEXCOORD_0" : 23}, "indices" : 20, "material" : 5, "mode" : 4}, {"attributes" : {"POSITION" : 25, "NORMAL" : 26, "TEXCOORD_0" : 27}, "indices" : 24, "material" : 6, "mode" : 4}]}, {"primitives" : [{"attributes" : {"POSITION" : 29, "NORMAL" : 30, "TEXCOORD_0" : 31}, "indices" : 28, "material" : 7, "mode" : 4}, {"attributes" : {"POSITION" : 33, "NORMAL" : 34, "TEXCOORD_0" : 35}, "indices" : 32, "material" : 8, "mode" : 4}]}, {"primitives" : [{"attributes" : {"POSITION" : 37, "NORMAL" : 38, "TEXCOORD_0" : 39}, "indices" : 36, "material" : 9, "mode" : 4}, {"attributes" : {"POSITION" : 41, "NORMAL" : 42, "TEXCOORD_0" : 43}, "indices" : 40, "material" : 10, "mode" : 4}, {"attributes" : {"POSITION" : 45, "NORMAL" : 46, "TEXCOORD_0" : 47}, "indices" : 44, "material" : 11, "mode" : 4}]}, {"primitives" : [{"attributes" : {"POSITION" : 37, "NORMAL" : 38, "TEXCOORD_0" : 39}, "indices" : 36, "material" : 9, "mode" : 4}, {"attributes" : {"POSITION" : 41, "NORMAL" : 42, "TEXCOORD_0" : 43}, "indices" : 40, "material" : 10, "mode" : 4}, {"attributes" : {"POSITION" : 45, "NORMAL" : 46, "TEXCOORD_0" : 47}, "indices" : 44, "material" : 11, "mode" : 4}]}, {"primitives" : [{"attributes" : {"POSITION" : 37, "NORMAL" : 38, "TEXCOORD_0" : 39}, "indices" : 36, "material" : 9, "mode" : 4}, {"attributes" : {"POSITION" : 41, "NORMAL" : 42, "TEXCOORD_0" : 43}, "indices" : 40, "material" : 10, "mode" : 4}, {"attributes" : {"POSITION" : 45, "NORMAL" : 46, "TEXCOORD_0" : 47}, "indices" : 44, "material" : 11, "mode" : 4}]}, {"primitives" : [{"attributes" : {"POSITION" : 37, "NORMAL" : 38, "TEXCOORD_0" : 39}, "indices" : 36, "material" : 9, "mode" : 4}, {"attributes" : {"POSITION" : 41, "NORMAL" : 42, "TEXCOORD_0" : 43}, "indices" : 40, "material" : 10, "mode" : 4}, {"attributes" : {"POSITION" : 45, "NORMAL" : 46, "TEXCOORD_0" : 47}, "indices" : 44, "material" : 11, "mode" : 4}]}], "nodes" : [{"matrix" : [1, 0, 0, 0, 0, 1, 0, 0, 0, 0, 1, 0, -5.775291E-15, 0.400000036, 1.06868625, 1], "mesh" : 1, "name" : "spoiler"}, {"children" : [0], "matrix" : [1, 0, 0, 0, 0, 1, 0, 0, 0, 0, 1, 0, -2.45449887E-14, 0.2, 0, 1], "mesh" : 0, "name" : "body"}, {"matrix" : [-1, 0, 0, 0, 0, 1, 0, 0, 0, 0, 1, 0, -0.3, 0.3, 0.659999967, 1], "mesh" : 2, "name" : "wheel_backLeft"}, {"matrix" : [1, 0, 0, 0, 0, 1, 0, 0, 0, 0, 1, 0, 0.3, 0.3, 0.659999967, 1], "mesh" : 3, "name" : "wheel_backRight"}, {"matrix" : [-1, 0, 0, 0, 0, 1, 0, 0, 0, 0, 1, 0, -0.3, 0.3, -0.659999967, 1], "mesh" : 4, "name" : "wheel_frontLeft"}, {"matrix" : [1, 0, 0, 0, 0, 1, 0, 0, 0, 0, 1, 0, 0.3, 0.3, -0.659999967, 1], "mesh" : 5, "name" : "wheel_frontRight"}, {"children" : [1, 2, 3, 4, 5], "name" : "sedanSports"}], "scene" : 0, "scenes" : [{"nodes" : [6]}], "extensions" : {"VRM" : {"blendShapeMaster" : {"blendShapeGroups" : []}, "exporterVersion" : "UniVRM-0.98.0", "firstPerson" : {"firstPersonBoneOffset" : {"x" : 0, "y" : 0, "z" : 0}, "lookAtHorizontalInner" : {"xRange" : 90, "yRange" : 10}, "lookAtHorizontalOuter" : {"xRange" : 90, "yRange" : 10}, "lookAtTypeName" : "Bone", "lookAtVerticalDown" : {"xRange" : 90, "yRange" : 10}, "lookAtVerticalUp" : {"xRange" : 90, "yRange" : 10}, "meshAnnotations" : []}, "humanoid" : {"armStretch" : 0.05, "feetSpacing" : 0, "hasTranslationDoF" : false, "humanBones" : [], "legStretch" : 0.05, "lowerArmTwist" : 0.5, "lowerLegTwist" : 0.5, "upperArmTwist" : 0.5, "upperLegTwist" : 0.5}, "materialProperties" : [{"floatProperties" : {}, "keywordMap" : {}, "name" : "plastic", "renderQueue" : 2000, "shader" : "VRM_USE_GLTFSHADER", "tagMap" : {}, "textureProperties" : {}, "vectorProperties" : {}}, {"floatProperties" : {}, "keywordMap" : {}, "name" : "carTire", "renderQueue" : 2000, "shader" : "VRM_USE_GLTFSHADER", "tagMap" : {}, "textureProperties" : {}, "vectorProperties" : {}}, {"floatProperties" : {}, "keywordMap" : {}, "name" : "paintRed", "renderQueue" : 2000, "shader" : "VRM_USE_GLTFSHADER", "tagMap" : {}, "textureProperties" : {}, "vectorProperties" : {}}, {"floatProperties" : {}, "keywordMap" : {}, "name" : "_defaultMat", "renderQueue" : 2000, "shader" : "VRM_USE_GLTFSHADER", "tagMap" : {}, "textureProperties" : {}, "vectorProperties" : {}}, {"floatProperties" : {}, "keywordMap" : {}, "name" : "window", "renderQueue" : 2000, "shader" : "VRM_USE_GLTFSHADER", "tagMap" : {}, "textureProperties" : {}, "vectorProperties" : {}}, {"floatProperties" : {}, "keywordMap" : {}, "name" : "lightBack", "renderQueue" : 2000, "shader" : "VRM_USE_GLTFSHADER", "tagMap" : {}, "textureProperties" : {}, "vectorProperties" : {}}, {"floatProperties" : {}, "keywordMap" : {}, "name" : "lightFront", "renderQueue" : 2000, "shader" : "VRM_USE_GLTFSHADER", "tagMap" : {}, "textureProperties" : {}, "vectorProperties" : {}}, {"floatProperties" : {}, "keywordMap" : {}, "name" : "wheelInside", "renderQueue" : 2000, "shader" : "VRM_USE_GLTFSHADER", "tagMap" : {}, "textureProperties" : {}, "vectorProperties" : {}}], "meta" : {"allowedUserName" : "OnlyAuthor", "commercialUssageName" : "Disallow", "licenseName" : "Redistribution_Prohibited", "sexualUssageName" : "Disallow", "violentUssageName" : "Disallow"}, "secondaryAnimation" : {"boneGroups" : [], "colliderGroups" : []}, "specVersion" : "0.0"}}}