{"extensionsUsed" : ["KHR_materials_unlit", "KHR_texture_transform", "VRM"], "accessors" : [{"bufferView" : 0, "byteOffset" : 0, "componentType" : 5123, "count" : 996, "type" : "SCALAR", "max" : [910], "min" : [0]}, {"bufferView" : 1, "byteOffset" : 0, "componentType" : 5126, "count" : 911, "type" : "VEC3", "max" : [0.6499999761581421, 0.4899999797344208, 1.4499999284744263], "min" : [-0.6499999761581421, 0, -1.2000000476837158], "name" : "POSITION"}, {"bufferView" : 1, "byteOffset" : 12, "componentType" : 5126, "count" : 911, "type" : "VEC3", "max" : [1.0000044107437134, 1.0000044107437134, 1.0000044107437134], "min" : [-1.0000044107437134, -1.0000044107437134, -1.0000044107437134], "name" : "NORMAL"}, {"bufferView" : 1, "byteOffset" : 24, "componentType" : 5126, "count" : 911, "type" : "VEC2", "max" : [57.086612701416016, 46.24409484863281], "min" : [-57.086612701416016, -58.086612701416016], "name" : "TEXCOORD_0"}, {"bufferView" : 0, "byteOffset" : 1992, "componentType" : 5123, "count" : 492, "type" : "SCALAR", "max" : [471], "min" : [0]}, {"bufferView" : 2, "byteOffset" : 0, "componentType" : 5126, "count" : 472, "type" : "VEC3", "max" : [0.6499999761581421, 0.4000000059604645, 1.159999966621399], "min" : [-0.6499999761581421, 0, -0.9600000381469727], "name" : "POSITION"}, {"bufferView" : 2, "byteOffset" : 12, "componentType" : 5126, "count" : 472, "type" : "VEC3", "max" : [1.0000044107437134, 0, 1.0000044107437134], "min" : [-1.0000044107437134, -1.0000044107437134, -1.0000044107437134], "name" : "NORMAL"}, {"bufferView" : 2, "byteOffset" : 24, "componentType" : 5126, "count" : 472, "type" : "VEC2", "max" : [45.66929244995117, 34.62413787841797], "min" : [-45.66929244995117, -35.596370697021484], "name" : "TEXCOORD_0"}, {"bufferView" : 0, "byteOffset" : 2976, "componentType" : 5123, "count" : 24, "type" : "SCALAR", "max" : [23], "min" : [0]}, {"bufferView" : 3, "byteOffset" : 0, "componentType" : 5126, "count" : 24, "type" : "VEC3", "max" : [0.550000011920929, 0.5249999761581421, -1.0499999523162842], "min" : [-0.550000011920929, 0.4000000059604645, -1.149999976158142], "name" : "POSITION"}, {"bufferView" : 3, "byteOffset" : 12, "componentType" : 5126, "count" : 24, "type" : "VEC3", "max" : [1.0000044107437134, 0, -0], "min" : [-1.0000044107437134, 0, -1.0000044107437134], "name" : "NORMAL"}, {"bufferView" : 3, "byteOffset" : 24, "componentType" : 5126, "count" : 24, "type" : "VEC2", "max" : [45.27558898925781, 19.66929054260254], "min" : [-45.27558898925781, 14.748031616210938], "name" : "TEXCOORD_0"}, {"bufferView" : 0, "byteOffset" : 3024, "componentType" : 5123, "count" : 462, "type" : "SCALAR", "max" : [422], "min" : [0]}, {"bufferView" : 4, "byteOffset" : 0, "componentType" : 5126, "count" : 423, "type" : "VEC3", "max" : [0.75, 1.149999976158142, 1.4499999284744263], "min" : [-0.75, 0.30000001192092896, -1.149999976158142], "name" : "POSITION"}, {"bufferView" : 4, "byteOffset" : 12, "componentType" : 5126, "count" : 423, "type" : "VEC3", "max" : [1.0000044107437134, 1.0000044107437134, 1.0000044107437134], "min" : [-1.0000044107437134, -1.0000044107437134, -1.0000044107437134], "name" : "NORMAL"}, {"bufferView" : 4, "byteOffset" : 24, "componentType" : 5126, "count" : 423, "type" : "VEC2", "max" : [57.086612701416016, 44.27558898925781], "min" : [-57.086612701416016, -50.21259689331055], "name" : "TEXCOORD_0"}, {"bufferView" : 0, "byteOffset" : 3948, "componentType" : 5123, "count" : 18, "type" : "SCALAR", "max" : [17], "min" : [0]}, {"bufferView" : 5, "byteOffset" : 0, "componentType" : 5126, "count" : 18, "type" : "VEC3", "max" : [0.75, 0.699999988079071, -0.4229022264480591], "min" : [-0.75, 0.5, -0.4229022264480591], "name" : "POSITION"}, {"bufferView" : 5, "byteOffset" : 12, "componentType" : 5126, "count" : 18, "type" : "VEC3", "max" : [0, 0, 1.0000044107437134], "min" : [0, 0, 1.0000044107437134], "name" : "NORMAL"}, {"bufferView" : 5, "byteOffset" : 24, "componentType" : 5126, "count" : 18, "type" : "VEC2", "max" : [25.298534393310547, 34.05458450317383], "min" : [-17.716535568237305, 17.91671371459961], "name" : "TEXCOORD_0"}, {"bufferView" : 0, "byteOffset" : 3984, "componentType" : 5123, "count" : 12, "type" : "SCALAR", "max" : [11], "min" : [0]}, {"bufferView" : 6, "byteOffset" : 0, "componentType" : 5126, "count" : 12, "type" : "VEC3", "max" : [0.550000011920929, 0.5, 1.4499999284744263], "min" : [-0.550000011920929, 0.4000000059604645, 1.4499999284744263], "name" : "POSITION"}, {"bufferView" : 6, "byteOffset" : 12, "componentType" : 5126, "count" : 12, "type" : "VEC3", "max" : [0, 0, 1.0000044107437134], "min" : [0, 0, 1.0000044107437134], "name" : "NORMAL"}, {"bufferView" : 6, "byteOffset" : 24, "componentType" : 5126, "count" : 12, "type" : "VEC2", "max" : [21.65354347229004, 18.685039520263672], "min" : [-21.65354347229004, 14.748031616210938], "name" : "TEXCOORD_0"}, {"bufferView" : 0, "byteOffset" : 4008, "componentType" : 5123, "count" : 48, "type" : "SCALAR", "max" : [44], "min" : [0]}, {"bufferView" : 7, "byteOffset" : 0, "componentType" : 5126, "count" : 45, "type" : "VEC3", "max" : [0.550000011920929, 1.0071523189544678, 1.4128609895706177], "min" : [-0.550000011920929, 0.6000000238418579, -0.75], "name" : "POSITION"}, {"bufferView" : 7, "byteOffset" : 12, "componentType" : 5126, "count" : 45, "type" : "VEC3", "max" : [0.9805850386619568, 0.37139230966567993, 0.9284807443618774], "min" : [-0.9805850386619568, 0.19611699879169464, -0.9284807443618774], "name" : "NORMAL"}, {"bufferView" : 7, "byteOffset" : 24, "componentType" : 5126, "count" : 45, "type" : "VEC2", "max" : [25.298534393310547, 34.05458450317383], "min" : [-25.298534393310547, 3.6680917739868164], "name" : "TEXCOORD_0"}, {"bufferView" : 0, "byteOffset" : 4104, "componentType" : 5123, "count" : 18, "type" : "SCALAR", "max" : [16], "min" : [0]}, {"bufferView" : 8, "byteOffset" : 0, "componentType" : 5126, "count" : 17, "type" : "VEC3", "max" : [0.21312499046325684, 0.4000000059604645, -1.116666555404663], "min" : [-0.21312499046325684, 0.20000000298023224, -1.149999976158142], "name" : "POSITION"}, {"bufferView" : 8, "byteOffset" : 12, "componentType" : 5126, "count" : 17, "type" : "VEC3", "max" : [1.0000044107437134, 0, -0], "min" : [-1.0000044107437134, 0, -1.0000044107437134], "name" : "NORMAL"}, {"bufferView" : 8, "byteOffset" : 24, "componentType" : 5126, "count" : 17, "type" : "VEC2", "max" : [45.27558898925781, 14.748031616210938], "min" : [-45.27558898925781, 6.874015808105469], "name" : "TEXCOORD_0"}, {"bufferView" : 0, "byteOffset" : 4140, "componentType" : 5123, "count" : 498, "type" : "SCALAR", "max" : [464], "min" : [0]}, {"bufferView" : 9, "byteOffset" : 0, "componentType" : 5126, "count" : 465, "type" : "VEC3", "max" : [0.30000001192092896, 0.30000001192092896, 0.30000001192092896], "min" : [0.10000000149011612, -0.30000001192092896, -0.30000001192092896], "name" : "POSITION"}, {"bufferView" : 9, "byteOffset" : 12, "componentType" : 5126, "count" : 465, "type" : "VEC3", "max" : [1.0000044107437134, 1.0000044107437134, 1.0000044107437134], "min" : [-1.0000044107437134, -1.0000044107437134, -1.0000044107437134], "name" : "NORMAL"}, {"bufferView" : 9, "byteOffset" : 24, "componentType" : 5126, "count" : 465, "type" : "VEC2", "max" : [11.811023712158203, 12.811023712158203], "min" : [-11.811023712158203, -10.811023712158203], "name" : "TEXCOORD_0"}, {"bufferView" : 0, "byteOffset" : 5136, "componentType" : 5123, "count" : 210, "type" : "SCALAR", "max" : [199], "min" : [0]}, {"bufferView" : 10, "byteOffset" : 0, "componentType" : 5126, "count" : 200, "type" : "VEC3", "max" : [0.30000001192092896, 0.12047797441482544, 0.12047797441482544], "min" : [0.25, -0.12047797441482544, -0.12047797441482544], "name" : "POSITION"}, {"bufferView" : 10, "byteOffset" : 12, "componentType" : 5126, "count" : 200, "type" : "VEC3", "max" : [1.0000044107437134, 0.8565922379493713, 0.8565922379493713], "min" : [0.5160024762153625, -0.8565922379493713, -0.8565922379493713], "name" : "NORMAL"}, {"bufferView" : 10, "byteOffset" : 24, "componentType" : 5126, "count" : 200, "type" : "VEC2", "max" : [12.564692497253418, 13.311131477355957], "min" : [-12.564692497253418, -11.311131477355957], "name" : "TEXCOORD_0"}, {"bufferView" : 0, "byteOffset" : 5556, "componentType" : 5123, "count" : 144, "type" : "SCALAR", "max" : [142], "min" : [0]}, {"bufferView" : 11, "byteOffset" : 0, "componentType" : 5126, "count" : 143, "type" : "VEC3", "max" : [0.30000001192092896, 0.18136820197105408, 0.18136820197105408], "min" : [0.30000001192092896, -0.18136820197105408, -0.18136820197105408], "name" : "POSITION"}, {"bufferView" : 11, "byteOffset" : 12, "componentType" : 5126, "count" : 143, "type" : "VEC3", "max" : [1.0000044107437134, 0, -0], "min" : [1.0000044107437134, 0, -0], "name" : "NORMAL"}, {"bufferView" : 11, "byteOffset" : 24, "componentType" : 5126, "count" : 143, "type" : "VEC2", "max" : [10.0393705368042, 3.5983800888061523], "min" : [9.697286605834961, -1.5983800888061523], "name" : "TEXCOORD_0"}], "asset" : {"generator" : "Aspose.3D 23.6.0", "version" : "2.0"}, "buffers" : [{"uri" : "data:application/octet-stream;base64,", "byteLength" : 99396}], "bufferViews" : [{"buffer" : 0, "byteOffset" : 0, "byteLength" : 5844, "target" : 34963}, {"buffer" : 0, "byteOffset" : 5848, "byteLength" : 31872, "byteStride" : 32, "target" : 34962}, {"buffer" : 0, "byteOffset" : 37724, "byteLength" : 15744, "byteStride" : 32, "target" : 34962}, {"buffer" : 0, "byteOffset" : 53472, "byteLength" : 768, "byteStride" : 32, "target" : 34962}, {"buffer" : 0, "byteOffset" : 54244, "byteLength" : 14784, "byteStride" : 32, "target" : 34962}, {"buffer" : 0, "byteOffset" : 69032, "byteLength" : 576, "byteStride" : 32, "target" : 34962}, {"buffer" : 0, "byteOffset" : 69612, "byteLength" : 384, "byteStride" : 32, "target" : 34962}, {"buffer" : 0, "byteOffset" : 70000, "byteLength" : 1536, "byteStride" : 32, "target" : 34962}, {"buffer" : 0, "byteOffset" : 71540, "byteLength" : 576, "byteStride" : 32, "target" : 34962}, {"buffer" : 0, "byteOffset" : 72120, "byteLength" : 15936, "byteStride" : 32, "target" : 34962}, {"buffer" : 0, "byteOffset" : 88060, "byteLength" : 6720, "byteStride" : 32, "target" : 34962}, {"buffer" : 0, "byteOffset" : 94784, "byteLength" : 4608, "byteStride" : 32, "target" : 34962}], "materials" : [{"name" : "plastic", "pbrMetallicRoughness" : {"baseColorFactor" : [0.116970651, 0.116970651, 0.116970651, 1], "metallicFactor" : 1, "roughnessFactor" : 1}, "emissiveFactor" : [0, 0, 0], "alphaMode" : "OPAQUE", "doubleSided" : false}, {"name" : "carTire", "pbrMetallicRoughness" : {"baseColorFactor" : [0.0466650724, 0.0466650724, 0.0466650724, 1], "metallicFactor" : 1, "roughnessFactor" : 1}, "emissiveFactor" : [0, 0, 0], "alphaMode" : "OPAQUE", "doubleSided" : false}, {"name" : "lightFront", "pbrMetallicRoughness" : {"baseColorFactor" : [0.9130987, 0.48514998, 0.05448027, 1], "metallicFactor" : 1, "roughnessFactor" : 1}, "emissiveFactor" : [0, 0, 0], "alphaMode" : "OPAQUE", "doubleSided" : false}, {"name" : "paintBlue", "pbrMetallicRoughness" : {"baseColorFactor" : [0.141263276, 0.194617763, 0.686685443, 1], "metallicFactor" : 1, "roughnessFactor" : 1}, "emissiveFactor" : [0, 0, 0], "alphaMode" : "OPAQUE", "doubleSided" : false}, {"name" : "_defaultMat", "pbrMetallicRoughness" : {"baseColorFactor" : [1, 1, 1, 1], "metallicFactor" : 1, "roughnessFactor" : 1}, "emissiveFactor" : [0, 0, 0], "alphaMode" : "OPAQUE", "doubleSided" : false}, {"name" : "lightBack", "pbrMetallicRoughness" : {"baseColorFactor" : [1, 0.0998987257, 0.0423114, 1], "metallicFactor" : 1, "roughnessFactor" : 1}, "emissiveFactor" : [0, 0, 0], "alphaMode" : "OPAQUE", "doubleSided" : false}, {"name" : "window", "pbrMetallicRoughness" : {"baseColorFactor" : [0.8631573, 0.8631573, 0.8631573, 1], "metallicFactor" : 1, "roughnessFactor" : 1}, "emissiveFactor" : [0, 0, 0], "alphaMode" : "OPAQUE", "doubleSided" : false}, {"name" : "wheelInside", "pbrMetallicRoughness" : {"baseColorFactor" : [0.5971663, 0.611944556, 0.673177958, 1], "metallicFactor" : 1, "roughnessFactor" : 1}, "emissiveFactor" : [0, 0, 0], "alphaMode" : "OPAQUE", "doubleSided" : false}, {"name" : "carTire", "pbrMetallicRoughness" : {"baseColorFactor" : [0.0466650724, 0.0466650724, 0.0466650724, 1], "metallicFactor" : 1, "roughnessFactor" : 1}, "emissiveFactor" : [0, 0, 0], "alphaMode" : "OPAQUE", "doubleSided" : false}, {"name" : "wheelInside", "pbrMetallicRoughness" : {"baseColorFactor" : [0.5971663, 0.611944556, 0.673177958, 1], "metallicFactor" : 1, "roughnessFactor" : 1}, "emissiveFactor" : [0, 0, 0], "alphaMode" : "OPAQUE", "doubleSided" : false}, {"name" : "_defaultMat", "pbrMetallicRoughness" : {"baseColorFactor" : [1, 1, 1, 1], "metallicFactor" : 1, "roughnessFactor" : 1}, "emissiveFactor" : [0, 0, 0], "alphaMode" : "OPAQUE", "doubleSided" : false}], "meshes" : [{"primitives" : [{"attributes" : {"POSITION" : 1, "NORMAL" : 2, "TEXCOORD_0" : 3}, "indices" : 0, "material" : 0, "mode" : 4}, {"attributes" : {"POSITION" : 5, "NORMAL" : 6, "TEXCOORD_0" : 7}, "indices" : 4, "material" : 1, "mode" : 4}, {"attributes" : {"POSITION" : 9, "NORMAL" : 10, "TEXCOORD_0" : 11}, "indices" : 8, "material" : 2, "mode" : 4}, {"attributes" : {"POSITION" : 13, "NORMAL" : 14, "TEXCOORD_0" : 15}, "indices" : 12, "material" : 3, "mode" : 4}, {"attributes" : {"POSITION" : 17, "NORMAL" : 18, "TEXCOORD_0" : 19}, "indices" : 16, "material" : 4, "mode" : 4}, {"attributes" : {"POSITION" : 21, "NORMAL" : 22, "TEXCOORD_0" : 23}, "indices" : 20, "material" : 5, "mode" : 4}, {"attributes" : {"POSITION" : 25, "NORMAL" : 26, "TEXCOORD_0" : 27}, "indices" : 24, "material" : 6, "mode" : 4}, {"attributes" : {"POSITION" : 29, "NORMAL" : 30, "TEXCOORD_0" : 31}, "indices" : 28, "material" : 7, "mode" : 4}]}, {"primitives" : [{"attributes" : {"POSITION" : 33, "NORMAL" : 34, "TEXCOORD_0" : 35}, "indices" : 32, "material" : 8, "mode" : 4}, {"attributes" : {"POSITION" : 37, "NORMAL" : 38, "TEXCOORD_0" : 39}, "indices" : 36, "material" : 9, "mode" : 4}, {"attributes" : {"POSITION" : 41, "NORMAL" : 42, "TEXCOORD_0" : 43}, "indices" : 40, "material" : 10, "mode" : 4}]}, {"primitives" : [{"attributes" : {"POSITION" : 33, "NORMAL" : 34, "TEXCOORD_0" : 35}, "indices" : 32, "material" : 8, "mode" : 4}, {"attributes" : {"POSITION" : 37, "NORMAL" : 38, "TEXCOORD_0" : 39}, "indices" : 36, "material" : 9, "mode" : 4}, {"attributes" : {"POSITION" : 41, "NORMAL" : 42, "TEXCOORD_0" : 43}, "indices" : 40, "material" : 10, "mode" : 4}]}, {"primitives" : [{"attributes" : {"POSITION" : 33, "NORMAL" : 34, "TEXCOORD_0" : 35}, "indices" : 32, "material" : 8, "mode" : 4}, {"attributes" : {"POSITION" : 37, "NORMAL" : 38, "TEXCOORD_0" : 39}, "indices" : 36, "material" : 9, "mode" : 4}, {"attributes" : {"POSITION" : 41, "NORMAL" : 42, "TEXCOORD_0" : 43}, "indices" : 40, "material" : 10, "mode" : 4}]}, {"primitives" : [{"attributes" : {"POSITION" : 33, "NORMAL" : 34, "TEXCOORD_0" : 35}, "indices" : 32, "material" : 8, "mode" : 4}, {"attributes" : {"POSITION" : 37, "NORMAL" : 38, "TEXCOORD_0" : 39}, "indices" : 36, "material" : 9, "mode" : 4}, {"attributes" : {"POSITION" : 41, "NORMAL" : 42, "TEXCOORD_0" : 43}, "indices" : 40, "material" : 10, "mode" : 4}]}], "nodes" : [{"matrix" : [1, 0, 0, 0, 0, 1, 0, 0, 0, 0, 1, 0, 0, 0.2, -0.1, 1], "mesh" : 0, "name" : "body"}, {"matrix" : [-1, 0, 0, 0, 0, 1, 0, 0, 0, 0, 1, 0, -0.3, 0.3, 0.76, 1], "mesh" : 1, "name" : "wheel_backLeft"}, {"matrix" : [1, 0, 0, 0, 0, 1, 0, 0, 0, 0, 1, 0, 0.3, 0.3, 0.76, 1], "mesh" : 2, "name" : "wheel_backRight"}, {"matrix" : [-1, 0, 0, 0, 0, 1, 0, 0, 0, 0, 1, 0, -0.3, 0.3, -0.76, 1], "mesh" : 3, "name" : "wheel_frontLeft"}, {"matrix" : [1, 0, 0, 0, 0, 1, 0, 0, 0, 0, 1, 0, 0.3, 0.3, -0.76, 1], "mesh" : 4, "name" : "wheel_frontRight"}, {"children" : [0, 1, 2, 3, 4], "name" : "van"}], "scene" : 0, "scenes" : [{"nodes" : [5]}], "extensions" : {"VRM" : {"blendShapeMaster" : {"blendShapeGroups" : []}, "exporterVersion" : "UniVRM-0.98.0", "firstPerson" : {"firstPersonBoneOffset" : {"x" : 0, "y" : 0, "z" : 0}, "lookAtHorizontalInner" : {"xRange" : 90, "yRange" : 10}, "lookAtHorizontalOuter" : {"xRange" : 90, "yRange" : 10}, "lookAtTypeName" : "Bone", "lookAtVerticalDown" : {"xRange" : 90, "yRange" : 10}, "lookAtVerticalUp" : {"xRange" : 90, "yRange" : 10}, "meshAnnotations" : []}, "humanoid" : {"armStretch" : 0.05, "feetSpacing" : 0, "hasTranslationDoF" : false, "humanBones" : [], "legStretch" : 0.05, "lowerArmTwist" : 0.5, "lowerLegTwist" : 0.5, "upperArmTwist" : 0.5, "upperLegTwist" : 0.5}, "materialProperties" : [{"floatProperties" : {}, "keywordMap" : {}, "name" : "plastic", "renderQueue" : 2000, "shader" : "VRM_USE_GLTFSHADER", "tagMap" : {}, "textureProperties" : {}, "vectorProperties" : {}}, {"floatProperties" : {}, "keywordMap" : {}, "name" : "carTire", "renderQueue" : 2000, "shader" : "VRM_USE_GLTFSHADER", "tagMap" : {}, "textureProperties" : {}, "vectorProperties" : {}}, {"floatProperties" : {}, "keywordMap" : {}, "name" : "lightFront", "renderQueue" : 2000, "shader" : "VRM_USE_GLTFSHADER", "tagMap" : {}, "textureProperties" : {}, "vectorProperties" : {}}, {"floatProperties" : {}, "keywordMap" : {}, "name" : "paintBlue", "renderQueue" : 2000, "shader" : "VRM_USE_GLTFSHADER", "tagMap" : {}, "textureProperties" : {}, "vectorProperties" : {}}, {"floatProperties" : {}, "keywordMap" : {}, "name" : "_defaultMat", "renderQueue" : 2000, "shader" : "VRM_USE_GLTFSHADER", "tagMap" : {}, "textureProperties" : {}, "vectorProperties" : {}}, {"floatProperties" : {}, "keywordMap" : {}, "name" : "lightBack", "renderQueue" : 2000, "shader" : "VRM_USE_GLTFSHADER", "tagMap" : {}, "textureProperties" : {}, "vectorProperties" : {}}, {"floatProperties" : {}, "keywordMap" : {}, "name" : "window", "renderQueue" : 2000, "shader" : "VRM_USE_GLTFSHADER", "tagMap" : {}, "textureProperties" : {}, "vectorProperties" : {}}, {"floatProperties" : {}, "keywordMap" : {}, "name" : "wheelInside", "renderQueue" : 2000, "shader" : "VRM_USE_GLTFSHADER", "tagMap" : {}, "textureProperties" : {}, "vectorProperties" : {}}], "meta" : {"allowedUserName" : "OnlyAuthor", "commercialUssageName" : "Disallow", "licenseName" : "Redistribution_Prohibited", "sexualUssageName" : "Disallow", "violentUssageName" : "Disallow"}, "secondaryAnimation" : {"boneGroups" : [], "colliderGroups" : []}, "specVersion" : "0.0"}}}