{"extensionsUsed" : ["KHR_materials_unlit", "KHR_texture_transform", "VRM"], "accessors" : [{"bufferView" : 0, "byteOffset" : 0, "componentType" : 5123, "count" : 354, "type" : "SCALAR", "max" : [352], "min" : [0]}, {"bufferView" : 1, "byteOffset" : 0, "componentType" : 5126, "count" : 353, "type" : "VEC3", "max" : [-0.10000000149011612, 0.18136820197105408, 0.18136820197105408], "min" : [-0.15000000596046448, -0.18136820197105408, -0.18136820197105408], "name" : "POSITION"}, {"bufferView" : 1, "byteOffset" : 12, "componentType" : 5126, "count" : 353, "type" : "VEC3", "max" : [-0.5160024762153625, 0.8565922379493713, 0.8565922379493713], "min" : [-1.0000044107437134, -0.8565922379493713, -0.8565922379493713], "name" : "NORMAL"}, {"bufferView" : 1, "byteOffset" : 24, "componentType" : 5126, "count" : 353, "type" : "VEC2", "max" : [5.905511856079102, 2.303370475769043], "min" : [-5.905511856079102, -4.303370475769043], "name" : "TEXCOORD_0"}, {"bufferView" : 0, "byteOffset" : 708, "componentType" : 5123, "count" : 498, "type" : "SCALAR", "max" : [464], "min" : [0]}, {"bufferView" : 2, "byteOffset" : 0, "componentType" : 5126, "count" : 465, "type" : "VEC3", "max" : [0.15000000596046448, 0.30000001192092896, 0.30000001192092896], "min" : [-0.15000000596046448, -0.30000001192092896, -0.30000001192092896], "name" : "POSITION"}, {"bufferView" : 2, "byteOffset" : 12, "componentType" : 5126, "count" : 465, "type" : "VEC3", "max" : [1.0000044107437134, 1.0000044107437134, 1.0000044107437134], "min" : [-1.0000044107437134, -1.0000044107437134, -1.0000044107437134], "name" : "NORMAL"}, {"bufferView" : 2, "byteOffset" : 24, "componentType" : 5126, "count" : 465, "type" : "VEC2", "max" : [11.811023712158203, 10.811023712158203], "min" : [-11.811023712158203, -12.811023712158203], "name" : "TEXCOORD_0"}], "asset" : {"generator" : "Aspose.3D 23.6.0", "version" : "2.0"}, "buffers" : [{"uri" : "data:application/octet-stream;base64,", "byteLength" : 28980}], "bufferViews" : [{"buffer" : 0, "byteOffset" : 0, "byteLength" : 1704, "target" : 34963}, {"buffer" : 0, "byteOffset" : 1708, "byteLength" : 11328, "byteStride" : 32, "target" : 34962}, {"buffer" : 0, "byteOffset" : 13040, "byteLength" : 15936, "byteStride" : 32, "target" : 34962}], "materials" : [{"name" : "_defaultMat", "pbrMetallicRoughness" : {"baseColorFactor" : [1, 1, 1, 1], "metallicFactor" : 1, "roughnessFactor" : 1}, "emissiveFactor" : [0, 0, 0], "alphaMode" : "OPAQUE", "doubleSided" : false}, {"name" : "carTire", "pbrMetallicRoughness" : {"baseColorFactor" : [0.0466650724, 0.0466650724, 0.0466650724, 1], "metallicFactor" : 1, "roughnessFactor" : 1}, "emissiveFactor" : [0, 0, 0], "alphaMode" : "OPAQUE", "doubleSided" : false}], "meshes" : [{"primitives" : [{"attributes" : {"POSITION" : 1, "NORMAL" : 2, "TEXCOORD_0" : 3}, "indices" : 0, "material" : 0, "mode" : 4}, {"attributes" : {"POSITION" : 5, "NORMAL" : 6, "TEXCOORD_0" : 7}, "indices" : 4, "material" : 1, "mode" : 4}]}], "nodes" : [{"mesh" : 0, "name" : "wheelDefault"}], "scene" : 0, "scenes" : [{"nodes" : [0]}], "extensions" : {"VRM" : {"blendShapeMaster" : {"blendShapeGroups" : []}, "exporterVersion" : "UniVRM-0.98.0", "firstPerson" : {"firstPersonBoneOffset" : {"x" : 0, "y" : 0, "z" : 0}, "lookAtHorizontalInner" : {"xRange" : 90, "yRange" : 10}, "lookAtHorizontalOuter" : {"xRange" : 90, "yRange" : 10}, "lookAtTypeName" : "Bone", "lookAtVerticalDown" : {"xRange" : 90, "yRange" : 10}, "lookAtVerticalUp" : {"xRange" : 90, "yRange" : 10}, "meshAnnotations" : []}, "humanoid" : {"armStretch" : 0.05, "feetSpacing" : 0, "hasTranslationDoF" : false, "humanBones" : [], "legStretch" : 0.05, "lowerArmTwist" : 0.5, "lowerLegTwist" : 0.5, "upperArmTwist" : 0.5, "upperLegTwist" : 0.5}, "materialProperties" : [{"floatProperties" : {}, "keywordMap" : {}, "name" : "_defaultMat", "renderQueue" : 2000, "shader" : "VRM_USE_GLTFSHADER", "tagMap" : {}, "textureProperties" : {}, "vectorProperties" : {}}, {"floatProperties" : {}, "keywordMap" : {}, "name" : "carTire", "renderQueue" : 2000, "shader" : "VRM_USE_GLTFSHADER", "tagMap" : {}, "textureProperties" : {}, "vectorProperties" : {}}], "meta" : {"allowedUserName" : "OnlyAuthor", "commercialUssageName" : "Disallow", "licenseName" : "Redistribution_Prohibited", "sexualUssageName" : "Disallow", "violentUssageName" : "Disallow"}, "secondaryAnimation" : {"boneGroups" : [], "colliderGroups" : []}, "specVersion" : "0.0"}}}